HIERARCHY
ROOT Pelvis
{
	OFFSET 0.000000 0.000000 0.000000
	CHANNELS 6 Xposition Yposition Zposition Xrotation Yrotation Zrotation
	JOINT LeftUpLeg_virtual
	{
		OFFSET 0.000000 0.000000 0.000000
		CHANNELS 3 Xrotation Yrotation Zrotation
		JOINT LeftUpLeg
		{
			OFFSET 18.735201 -5.666702 -4.541200
			CHANNELS 3 Xrotation Yrotation Zrotation
			JOINT LeftLeg
			{
				OFFSET -0.021200 -31.938179 0.493100
				CHANNELS 3 Xrotation Yrotation Zrotation
				JOINT LeftFoot
				{
					OFFSET 0.021200 -31.938179 -4.336299
					CHANNELS 3 Xrotation Yrotation Zrotation
					JOINT LeftToeBase
					{
						OFFSET 0.943001 -26.722000 15.023500
						CHANNELS 3 Xrotation Yrotation Zrotation
						End Site
						{
							OFFSET 0 0 0
						}
					}
				}
			}
		}
	}
	JOINT RightUpLeg_virtual
	{
		OFFSET 0.000000 0.000000 0.000000
		CHANNELS 3 Xrotation Yrotation Zrotation
		JOINT RightUpLeg
		{
			OFFSET -18.735201 -5.666702 -4.541200
			CHANNELS 3 Xrotation Yrotation Zrotation
			JOINT RightLeg
			{
				OFFSET 0.018946 -31.938133 0.493100
				CHANNELS 3 Xrotation Yrotation Zrotation
				JOINT RightFoot
				{
					OFFSET -0.018946 -31.938126 -4.336299
					CHANNELS 3 Xrotation Yrotation Zrotation
					JOINT RightToeBase
					{
						OFFSET -0.943001 -26.722004 15.023500
						CHANNELS 3 Xrotation Yrotation Zrotation
						End Site
						{
							OFFSET 0 0 0
						}
					}
				}
			}
		}
	}
	JOINT Hips_virtual
	{
		OFFSET 0.000000 0.000000 0.000000
		CHANNELS 3 Xrotation Yrotation Zrotation
		JOINT Hips
		{
			OFFSET -0.000000 -0.000000 -0.000000
			CHANNELS 3 Xrotation Yrotation Zrotation
			JOINT Spine
			{
				OFFSET 0.000000 10.199997 -0.299500
				CHANNELS 3 Xrotation Yrotation Zrotation
				JOINT Spine1
				{
					OFFSET 0.000000 11.900002 -1.516600
					CHANNELS 3 Xrotation Yrotation Zrotation
					JOINT Spine2
					{
						OFFSET 0.000000 13.600006 -2.842500
						CHANNELS 3 Xrotation Yrotation Zrotation
						JOINT Neck_virtual
						{
							OFFSET 0.000000 0.000000 0.000000
							CHANNELS 3 Xrotation Yrotation Zrotation
							JOINT Neck
							{
								OFFSET 0.000000 9.624100 -2.890100
								CHANNELS 3 Xrotation Yrotation Zrotation
								JOINT Head
								{
									OFFSET 0.000000 14.068802 -1.351900
									CHANNELS 3 Xrotation Yrotation Zrotation
									End Site
									{
										OFFSET 0 0 0
									}
								}
							}
						}
						JOINT LeftShoulder_virtual
						{
							OFFSET 0.000000 0.000000 0.000000
							CHANNELS 3 Xrotation Yrotation Zrotation
							JOINT LeftShoulder
							{
								OFFSET 15.263000 10.923401 -0.547700
								CHANNELS 3 Xrotation Yrotation Zrotation
								JOINT LeftArm
								{
									OFFSET 25.438599 -2.830597 -13.032500
									CHANNELS 3 Xrotation Yrotation Zrotation
									JOINT LeftForeArm
									{
										OFFSET 29.960503 0.000000 0.000000
										CHANNELS 3 Xrotation Yrotation Zrotation
										JOINT LeftHand
										{
											OFFSET 27.849251 0.000000 0.000000
											CHANNELS 3 Xrotation Yrotation Zrotation
											End Site
											{
												OFFSET 0 0 0
											}
										}
									}
								}
							}
						}
						JOINT RightShoulder_virtual
						{
							OFFSET 0.000000 0.000000 0.000000
							CHANNELS 3 Xrotation Yrotation Zrotation
							JOINT RightShoulder
							{
								OFFSET -15.263000 10.923401 -0.547700
								CHANNELS 3 Xrotation Yrotation Zrotation
								JOINT RightArm
								{
									OFFSET -25.438599 -2.830597 -13.032500
									CHANNELS 3 Xrotation Yrotation Zrotation
									JOINT RightForeArm
									{
										OFFSET -29.960503 0.000000 0.000000
										CHANNELS 3 Xrotation Yrotation Zrotation
										JOINT RightHand
										{
											OFFSET -27.849251 0.000000 0.000000
											CHANNELS 3 Xrotation Yrotation Zrotation
											End Site
											{
												OFFSET 0 0 0
											}
										}
									}
								}
							}
						}
					}
				}
			}
		}
	}
}
MOTION
Frames: 5
Frame Time: 0.03333333
-4.553705 88.399437 19.501823 0.000000 0.000000 0.000000 -5.577411 -9.350229 0.598326 -37.047844 1.754735 -2.392268 46.082402 -2.705221 -1.848145 0.085815 -6.155293 2.423475 0.000000 0.000000 0.000000 -5.913078 -7.979212 0.188332 -23.101768 3.863261 -0.442785 45.602803 11.195998 -5.872329 -22.056759 5.923208 1.752749 0.000000 0.000000 0.000000 -5.659822 -9.400580 0.786938 -1.632400 0.228719 -1.029794 2.944058 4.879935 -0.234717 5.499355 15.058451 -2.824079 0.000000 0.000000 0.000000 4.872426 19.513359 -4.514619 2.101094 2.716949 -1.726176 0.000000 0.000000 0.000000 6.915049 19.531134 -4.068785 12.739419 -17.562532 4.489071 -33.887174 10.683370 -55.658238 -94.664919 -15.454616 -91.952405 0.000000 0.000000 0.000000 5.720260 19.373157 -4.748870 10.848094 11.193749 -4.506692 -1.828315 30.998636 44.439861 -112.293166 63.445771 100.138230 0.000000 0.000000 0.000000 
-5.784649 88.816681 19.701822 0.000000 0.000000 0.000000 -5.452750 -5.189876 0.610298 -36.724121 0.656704 -1.606139 43.683294 -2.592094 -1.426865 2.847496 -6.786917 -0.452404 0.000000 0.000000 0.000000 -6.015956 -3.989070 0.250949 -21.538629 2.006121 -0.253720 42.350434 10.751074 -4.691543 -19.880457 5.977142 0.672291 0.000000 0.000000 0.000000 -5.707418 -5.536499 0.729965 -1.308920 0.060575 -1.100168 3.064738 4.601528 0.038537 5.209245 14.977290 -2.861782 0.000000 0.000000 0.000000 4.583563 19.458912 -4.446644 2.018118 2.572883 -1.708448 0.000000 0.000000 0.000000 6.762312 19.419911 -4.159583 12.541958 -17.149765 3.416241 -33.810594 10.190461 -55.362518 -93.296054 -15.100998 -90.338138 0.000000 0.000000 0.000000 5.540238 19.314762 -4.887224 10.785500 12.252992 -5.964009 -2.069267 32.404569 46.282666 -112.357752 63.183464 99.617319 0.000000 0.000000 0.000000 
-7.009325 89.277664 19.982197 0.000000 0.000000 0.000000 -5.244660 -1.044309 0.703349 -36.170028 0.557435 -0.110846 41.043501 -2.155936 -1.155380 4.987625 -7.207638 -3.235847 0.000000 0.000000 0.000000 -6.041155 0.095630 0.392733 -20.037757 -0.307777 -0.423660 39.872189 9.750468 -3.462907 -17.424086 5.690782 0.043107 0.000000 0.000000 0.000000 -5.618363 -1.694586 0.781072 -0.944608 -0.023695 -1.166553 3.166379 4.431126 0.599174 5.059249 14.732211 -2.826793 0.000000 0.000000 0.000000 4.467538 19.215221 -4.294167 1.981093 2.431356 -1.657637 0.000000 0.000000 0.000000 6.622872 19.149067 -4.144964 12.232084 -17.107940 2.338060 -33.141140 10.461559 -55.821886 -92.768736 -15.033195 -89.613079 0.000000 0.000000 0.000000 5.391617 19.075298 -4.893746 10.570214 13.375249 -6.934268 -1.230007 33.365167 47.111069 -115.194501 62.852528 101.938114 0.000000 0.000000 0.000000 
-7.934673 89.716721 20.183784 0.000000 0.000000 0.000000 -5.128554 2.839896 0.927730 -35.450369 1.313445 2.041243 39.042478 -1.415776 -0.936122 5.920791 -7.418143 -5.864060 0.000000 0.000000 0.000000 -5.917078 3.887809 0.622658 -18.688791 -2.655276 -0.757620 38.131700 8.303462 -2.491316 -16.033248 5.183842 0.112011 0.000000 0.000000 0.000000 -5.439919 2.059165 0.987065 -0.493353 0.081679 -1.397389 3.256277 4.525147 1.244686 5.098737 14.477684 -2.811945 0.000000 0.000000 0.000000 4.597861 18.921395 -4.182690 1.955131 2.293861 -1.616739 0.000000 0.000000 0.000000 6.566835 18.849475 -4.075491 11.880872 -17.175291 1.779309 -32.141487 10.959574 -57.205109 -93.001338 -15.229034 -89.857060 0.000000 0.000000 0.000000 5.377045 18.780182 -4.847554 10.105197 14.215736 -7.378056 0.794304 33.358296 46.922478 -119.842964 62.454881 106.174635 0.000000 0.000000 0.000000 
-8.431665 90.019844 20.230057 0.000000 0.000000 0.000000 -5.230762 6.296319 1.338032 -34.572942 2.853057 4.832793 38.448836 -0.420545 -0.880090 5.636258 -7.445775 -8.417085 0.000000 0.000000 0.000000 -5.832333 7.275839 0.930315 -17.479646 -4.644702 -1.294080 36.819924 6.635751 -1.953797 -16.176139 4.635481 0.949666 0.000000 0.000000 0.000000 -5.314275 5.695230 1.351896 -0.146914 0.194971 -1.666260 3.236981 4.947676 1.784569 5.379664 14.206241 -2.899999 0.000000 0.000000 0.000000 4.944331 18.607151 -4.225509 1.900709 2.153791 -1.600137 0.000000 0.000000 0.000000 6.660630 18.545550 -4.042710 11.558126 -17.194856 1.991211 -31.421725 11.339047 -59.140846 -93.608624 -15.609047 -90.788917 0.000000 0.000000 0.000000 5.606719 18.446992 -4.829626 9.474289 14.579116 -7.382449 3.774408 32.083082 46.157732 -124.957601 62.015249 111.033522 0.000000 0.000000 0.000000 
